<svg width="45.45" height="25.3" viewBox="0 0 57.45 40.3" xmlns="http://www.w3.org/2000/svg"><g id="svgGroup" stroke-linecap="round" fill-rule="evenodd" font-size="9pt" stroke="#000" stroke-width="0.05" fill="#000" style="stroke:#000;stroke-width:0.05;fill:#000"><path d="M 24.65 27.85 L 25.35 28.35 Q 23.7 31.6 21.35 34.325 A 20.157 20.157 0 0 1 17.559 37.764 A 18.184 18.184 0 0 1 16.1 38.675 Q 13.2 40.3 9.85 40.3 A 11.568 11.568 0 0 1 7.428 40.061 Q 5.833 39.719 4.615 38.89 A 7.022 7.022 0 0 1 4.125 38.525 Q 1.95 36.75 0.975 33.95 Q 0 31.15 0 28.1 A 27.473 27.473 0 0 1 1.126 20.4 A 30.593 30.593 0 0 1 1.2 20.15 Q 2.4 16.15 4.475 12.525 Q 6.55 8.9 9.2 6.075 A 25.458 25.458 0 0 1 12.263 3.281 A 20.438 20.438 0 0 1 14.775 1.625 A 13.689 13.689 0 0 1 17.501 0.459 A 10.61 10.61 0 0 1 20.55 0 A 7.035 7.035 0 0 1 21.965 0.134 Q 22.848 0.316 23.537 0.742 A 4.167 4.167 0 0 1 23.875 0.975 A 2.95 2.95 0 0 1 24.841 2.32 Q 25.15 3.144 25.15 4.3 A 9.998 9.998 0 0 1 25.054 5.641 Q 24.962 6.322 24.781 7.069 A 17.686 17.686 0 0 1 24.65 7.575 Q 24.15 9.4 23.3 11.075 A 14.569 14.569 0 0 1 22.523 12.431 Q 22.067 13.131 21.568 13.693 A 8.881 8.881 0 0 1 21.425 13.85 Q 20.4 14.95 19.35 14.95 A 1.424 1.424 0 0 1 18.879 14.867 A 1.998 1.998 0 0 1 18.525 14.7 A 1.418 1.418 0 0 1 18.177 14.405 Q 18.048 14.256 17.934 14.059 A 3.172 3.172 0 0 1 17.8 13.8 Q 18.55 12.95 19.475 11.675 Q 20.4 10.4 21.25 8.975 A 19.328 19.328 0 0 0 22.186 7.213 A 16.156 16.156 0 0 0 22.625 6.175 A 9.565 9.565 0 0 0 22.945 5.19 Q 23.073 4.7 23.121 4.26 A 4.698 4.698 0 0 0 23.15 3.75 A 2.839 2.839 0 0 0 23.062 3.026 A 2.096 2.096 0 0 0 22.575 2.125 A 1.718 1.718 0 0 0 21.906 1.687 Q 21.412 1.5 20.7 1.5 Q 18.55 1.5 16.225 3.25 A 19.295 19.295 0 0 0 13.938 5.294 Q 12.813 6.463 11.725 7.925 A 39.358 39.358 0 0 0 8.702 12.692 A 45.502 45.502 0 0 0 7.8 14.45 Q 6.05 18.05 5.025 21.8 A 29.491 29.491 0 0 0 4.169 26.13 A 24.148 24.148 0 0 0 4 28.95 Q 4 31.4 4.7 33.625 A 8.482 8.482 0 0 0 5.691 35.749 A 7.184 7.184 0 0 0 6.975 37.225 A 5.46 5.46 0 0 0 9.578 38.466 A 7.711 7.711 0 0 0 11.05 38.6 A 9.946 9.946 0 0 0 14.847 37.825 A 12.635 12.635 0 0 0 16.325 37.1 A 18.991 18.991 0 0 0 20.31 34.036 A 22.018 22.018 0 0 0 21.15 33.15 Q 23.35 30.7 24.65 27.85 Z M 56.85 27.85 L 57.45 28.55 A 25.646 25.646 0 0 1 55.78 32.076 A 28.872 28.872 0 0 1 55.4 32.725 A 13.879 13.879 0 0 1 53.766 34.934 A 11.652 11.652 0 0 1 52.475 36.15 A 6.163 6.163 0 0 1 50.611 37.201 A 5.527 5.527 0 0 1 48.8 37.5 A 4.5 4.5 0 0 1 47.845 37.405 Q 47.248 37.276 46.808 36.968 A 2.421 2.421 0 0 1 46.25 36.425 A 4.036 4.036 0 0 1 45.479 34.409 A 5.204 5.204 0 0 1 45.45 33.85 A 8.366 8.366 0 0 1 45.45 33.831 A 8.665 8.665 0 0 1 45.825 31.35 Q 46.2 30.1 46.575 28.9 A 9.398 9.398 0 0 0 46.818 27.966 Q 46.917 27.48 46.942 27.042 A 5.113 5.113 0 0 0 46.95 26.75 A 3.485 3.485 0 0 0 46.918 26.261 Q 46.839 25.703 46.561 25.409 A 0.984 0.984 0 0 0 46.5 25.35 Q 46.05 24.95 45.5 24.95 A 1.98 1.98 0 0 0 44.583 25.197 Q 43.726 25.643 42.775 26.9 Q 41.443 28.662 39.396 31.729 A 221.702 221.702 0 0 0 38.95 32.4 A 17.006 17.006 0 0 0 37.778 34.443 A 15.349 15.349 0 0 0 37.6 34.825 Q 37.05 36.05 36.55 37.05 Q 36.278 37.05 35.914 37.004 A 9.456 9.456 0 0 1 35.55 36.95 A 4.482 4.482 0 0 1 34.915 36.798 A 3.599 3.599 0 0 1 34.475 36.625 Q 34.225 36.507 34.107 36.354 A 0.485 0.485 0 0 1 34 36.05 Q 34 35.768 34.309 34.853 A 26.568 26.568 0 0 1 34.475 34.375 Q 34.95 33.05 35.575 31.275 Q 36.2 29.5 36.675 27.675 A 17.996 17.996 0 0 0 36.96 26.406 Q 37.15 25.373 37.15 24.55 A 4.308 4.308 0 0 0 37.118 24.004 Q 37.082 23.724 37.006 23.491 A 2.015 2.015 0 0 0 36.875 23.175 A 0.928 0.928 0 0 0 36.205 22.679 A 1.518 1.518 0 0 0 35.9 22.65 A 2.37 2.37 0 0 0 35.1 22.803 Q 34.273 23.1 33.25 23.975 Q 31.918 25.114 30.512 26.862 A 32.84 32.84 0 0 0 30.05 27.45 Q 28.4 29.6 26.925 32.175 A 32.438 32.438 0 0 0 25.069 35.944 A 28.302 28.302 0 0 0 24.55 37.3 A 3.447 3.447 0 0 1 24.184 37.279 Q 23.856 37.244 23.45 37.15 Q 22.822 37.005 22.357 36.767 A 3.423 3.423 0 0 1 22.325 36.75 A 2.572 2.572 0 0 1 22.32 36.747 Q 21.993 36.574 21.894 36.401 A 0.301 0.301 0 0 1 21.85 36.25 Q 21.85 35.95 22.375 34.475 Q 22.9 33 23.575 30.925 Q 24.25 28.85 24.775 26.7 Q 25.212 24.909 25.285 23.465 A 11.19 11.19 0 0 0 25.3 22.9 A 2.068 2.068 0 0 1 25.548 22.66 Q 25.821 22.432 26.243 22.204 A 6.548 6.548 0 0 1 26.25 22.2 Q 26.9 21.85 27.6 21.85 A 2.213 2.213 0 0 1 27.978 21.88 Q 28.395 21.953 28.625 22.2 A 1.173 1.173 0 0 1 28.903 22.731 Q 28.947 22.911 28.95 23.122 A 2.186 2.186 0 0 1 28.95 23.15 A 3.684 3.684 0 0 1 28.927 23.533 Q 28.86 24.164 28.6 25.268 A 33.749 33.749 0 0 1 28.575 25.375 A 64.816 64.816 0 0 1 28.156 27.031 A 87.481 87.481 0 0 1 27.65 28.85 A 41.247 41.247 0 0 1 29.155 26.615 A 48.591 48.591 0 0 1 29.925 25.575 Q 31.2 23.9 32.6 22.5 A 17.508 17.508 0 0 1 34.095 21.161 A 13.572 13.572 0 0 1 35.425 20.225 A 6.597 6.597 0 0 1 36.571 19.659 Q 37.399 19.35 38.2 19.35 A 3.302 3.302 0 0 1 38.995 19.439 A 1.947 1.947 0 0 1 40.325 20.475 A 5.085 5.085 0 0 1 40.79 21.875 A 7.028 7.028 0 0 1 40.9 23.15 A 12.688 12.688 0 0 1 40.77 24.928 A 15.133 15.133 0 0 1 40.625 25.775 A 30.836 30.836 0 0 1 40.252 27.416 A 25.19 25.19 0 0 1 40 28.325 A 28.47 28.47 0 0 1 39.786 29.013 Q 39.556 29.719 39.35 30.2 Q 40.4 28.3 41.675 26.525 A 14.726 14.726 0 0 1 43.137 24.778 A 11.69 11.69 0 0 1 44.45 23.625 Q 45.95 22.5 47.65 22.5 Q 49.25 22.5 49.875 23.45 A 3.778 3.778 0 0 1 50.456 25.034 A 4.885 4.885 0 0 1 50.5 25.7 Q 50.5 26.96 50.078 28.454 A 14.231 14.231 0 0 1 50.05 28.55 A 92.592 92.592 0 0 1 49.155 31.459 A 85.108 85.108 0 0 1 49.125 31.55 Q 48.783 32.594 48.687 33.43 A 5.456 5.456 0 0 0 48.65 34.05 A 2.229 2.229 0 0 0 48.833 34.955 A 2.161 2.161 0 0 0 48.975 35.225 A 1.03 1.03 0 0 0 49.546 35.664 Q 49.805 35.75 50.15 35.75 A 3.162 3.162 0 0 0 51.852 35.24 Q 52.325 34.943 52.775 34.475 A 14.155 14.155 0 0 0 54.098 32.867 A 18.451 18.451 0 0 0 55.05 31.375 A 39.942 39.942 0 0 0 56.245 29.143 A 33.096 33.096 0 0 0 56.85 27.85 Z" vector-effect="non-scaling-stroke"/></g></svg>